<!--?xml version="1.0" encoding="utf-8"?-->
<!-- Generator: Adobe Illustrator 18.1.1, SVG Export Plug-In . SVG Version: 6.00 Build 0)  -->

<svg version="1.1" id="_x32_" xmlns="http://www.w3.org/2000/svg" xmlns:xlink="http://www.w3.org/1999/xlink" x="0px" y="0px" viewBox="0 0 512 512" style="width: 256px; height: 256px; opacity: 1;" xml:space="preserve">
<style type="text/css">
	.st0{fill:#4B4B4B;}
</style>
<g>
	<path class="st0" d="M353.622,121.496V13.534C353.622,6.06,347.569,0,340.102,0h-21.63c-7.467,0-13.527,6.06-13.527,13.534v107.962
		h-97.892V13.534C207.054,6.06,201.001,0,193.527,0h-21.622c-7.474,0-13.527,6.06-13.527,13.534v107.962h-56.409v45.962h308.063
		v-45.962H353.622z" style="fill: rgb(0, 77, 64);"></path>
	<path class="st0" d="M101.968,245.307c0,55.332,32.946,102.944,80.271,124.386v29.699c0,14.261,11.568,25.828,25.829,25.828h95.863
		c14.268,0,25.829-11.567,25.829-25.828v-29.699c47.332-21.441,80.271-69.054,80.271-124.386v-56.969H101.968V245.307z" style="fill: rgb(0, 77, 64);"></path>
	<rect x="226.711" y="444.366" class="st0" width="58.578" height="67.634" style="fill: rgb(0, 77, 64);"></rect>
</g>
</svg>
